<svg width="282" height="177" viewBox="0 0 282 177" fill="none" xmlns="http://www.w3.org/2000/svg">
<path d="M141.484 20.9624C154.463 20.9598 167.235 24.2166 178.632 30.4349L141.5 98.7074L141.484 20.9624Z" fill="url(#paint0_radial_520_24)"/>
<path d="M178.7 30.4722C187.72 35.4049 195.672 42.0824 202.095 50.1172C208.517 58.152 213.283 67.3842 216.116 77.2782C218.949 87.1722 219.791 97.5311 218.596 107.754C217.4 117.977 214.189 127.86 209.15 136.83C204.111 145.801 197.343 153.679 189.24 160.01C181.137 166.34 171.859 170.996 161.946 173.707C152.032 176.418 141.679 177.131 131.489 175.803C121.298 174.476 111.472 171.135 102.58 165.974L141.5 98.7074L178.7 30.4722Z" fill="url(#paint1_radial_520_24)"/>
<path d="M102.513 165.935C87.7602 157.353 76.2412 144.141 69.7376 128.344C63.2339 112.546 62.1079 95.0428 66.5337 78.54C70.9594 62.0372 80.6903 47.4545 94.2217 37.0468C107.753 26.6391 124.331 20.9864 141.392 20.9626L141.5 98.7076L102.513 165.935Z" fill="url(#paint2_radial_520_24)"/>
<path d="M167.311 7.90186C164.653 7.90186 163.601 12.0294 162.154 17.7048L160.707 23.3801" stroke="#9D1BDA"/>
<path d="M225.68 144.716C223.022 144.716 219.316 142.625 214.221 139.749L209.126 136.874" stroke="#017AA0"/>
<path d="M48.4883 74.3328C51.1466 74.3328 55.2536 75.4407 60.9006 76.9641L66.5477 78.4876" stroke="#642227"/>
<path d="M179.912 1.59989V9.99989H181.628V1.59989H179.912ZM180.956 3.05189H182.624C183.08 3.05189 183.44 3.15589 183.704 3.36389C183.968 3.56389 184.1 3.86789 184.1 4.27589C184.1 4.67589 183.968 4.97989 183.704 5.18789C183.44 5.39589 183.08 5.49989 182.624 5.49989H180.956V6.95189H182.624C183.288 6.95189 183.852 6.84389 184.316 6.62789C184.788 6.41189 185.148 6.10389 185.396 5.70389C185.644 5.29589 185.768 4.81989 185.768 4.27589C185.768 3.72389 185.644 3.24789 185.396 2.84789C185.148 2.44789 184.788 2.13989 184.316 1.92389C183.852 1.70789 183.288 1.59989 182.624 1.59989H180.956V3.05189Z" fill="white"/>
<path d="M188.241 4.47989H186.717V9.99989H188.241V4.47989ZM189.861 6.09989L190.569 4.77989C190.457 4.63589 190.309 4.52789 190.125 4.45589C189.949 4.38389 189.761 4.34789 189.561 4.34789C189.273 4.34789 188.993 4.45189 188.721 4.65989C188.449 4.85989 188.229 5.13189 188.061 5.47589C187.893 5.81189 187.809 6.19989 187.809 6.63989L188.241 7.07189C188.241 6.80789 188.273 6.58389 188.337 6.39989C188.409 6.20789 188.513 6.05989 188.649 5.95589C188.785 5.85189 188.949 5.79989 189.141 5.79989C189.301 5.79989 189.433 5.82789 189.537 5.88389C189.649 5.93189 189.757 6.00389 189.861 6.09989Z" fill="white"/>
<path d="M191.321 2.34389C191.321 2.59189 191.413 2.79989 191.597 2.96789C191.781 3.13589 192.001 3.21989 192.257 3.21989C192.513 3.21989 192.729 3.13589 192.905 2.96789C193.089 2.79989 193.181 2.59189 193.181 2.34389C193.181 2.08789 193.089 1.87989 192.905 1.71989C192.729 1.55189 192.513 1.46789 192.257 1.46789C192.001 1.46789 191.781 1.55189 191.597 1.71989C191.413 1.87989 191.321 2.08789 191.321 2.34389ZM191.489 4.47989V9.99989H193.001V4.47989H191.489Z" fill="white"/>
<path d="M193.859 4.47989L196.883 10.5759L199.907 4.47989H198.239L196.883 7.80389L195.527 4.47989H193.859Z" fill="white"/>
<path d="M201.755 8.28389C201.755 8.12389 201.791 7.99189 201.863 7.88789C201.935 7.77589 202.047 7.69189 202.199 7.63589C202.351 7.57189 202.547 7.53989 202.787 7.53989C203.083 7.53989 203.363 7.57989 203.627 7.65989C203.899 7.73989 204.143 7.85989 204.359 8.01989V7.29989C204.279 7.20389 204.147 7.10389 203.963 6.99989C203.779 6.89589 203.551 6.80789 203.279 6.73589C203.015 6.66389 202.707 6.62789 202.355 6.62789C201.667 6.62789 201.135 6.78389 200.759 7.09589C200.383 7.40789 200.195 7.83189 200.195 8.36789C200.195 8.74389 200.283 9.06389 200.459 9.32789C200.643 9.58389 200.883 9.77989 201.179 9.91589C201.475 10.0519 201.795 10.1199 202.139 10.1199C202.475 10.1199 202.795 10.0599 203.099 9.93989C203.411 9.81989 203.663 9.63989 203.855 9.39989C204.055 9.15989 204.155 8.86389 204.155 8.51189L203.963 7.79189C203.963 8.05589 203.903 8.28389 203.783 8.47589C203.663 8.65989 203.507 8.80389 203.315 8.90789C203.123 9.00389 202.907 9.05189 202.667 9.05189C202.499 9.05189 202.343 9.02389 202.199 8.96789C202.063 8.90389 201.955 8.81589 201.875 8.70389C201.795 8.58389 201.755 8.44389 201.755 8.28389ZM201.155 6.03989C201.235 5.98389 201.359 5.91589 201.527 5.83589C201.695 5.75589 201.895 5.68789 202.127 5.63189C202.359 5.57589 202.603 5.54789 202.859 5.54789C203.027 5.54789 203.179 5.56389 203.315 5.59589C203.451 5.62789 203.567 5.67989 203.663 5.75189C203.767 5.82389 203.843 5.91589 203.891 6.02789C203.939 6.13189 203.963 6.25989 203.963 6.41189V9.99989H205.463V6.08789C205.463 5.71189 205.359 5.39589 205.151 5.13989C204.943 4.87589 204.655 4.67589 204.287 4.53989C203.919 4.40389 203.499 4.33589 203.027 4.33589C202.515 4.33589 202.051 4.40789 201.635 4.55189C201.219 4.68789 200.867 4.83189 200.579 4.98389L201.155 6.03989Z" fill="white"/>
<path d="M206.201 4.47989V5.78789H209.609V4.47989H206.201ZM207.149 2.55989V9.99989H208.649V2.55989H207.149Z" fill="white"/>
<path d="M213.04 10.1199C213.704 10.1199 214.272 9.99189 214.744 9.73589C215.224 9.47189 215.608 9.07989 215.896 8.55989L214.54 8.13989C214.38 8.40389 214.176 8.60389 213.928 8.73989C213.688 8.86789 213.396 8.93189 213.052 8.93189C212.748 8.93189 212.488 8.86389 212.272 8.72789C212.056 8.59189 211.892 8.39589 211.78 8.13989C211.676 7.88389 211.624 7.57189 211.624 7.20389C211.632 6.81989 211.688 6.49989 211.792 6.24389C211.904 5.97989 212.06 5.78389 212.26 5.65589C212.468 5.51989 212.724 5.45189 213.028 5.45189C213.276 5.45189 213.492 5.50789 213.676 5.61989C213.86 5.73189 214 5.88389 214.096 6.07589C214.2 6.26789 214.252 6.49989 214.252 6.77189C214.252 6.82789 214.236 6.89989 214.204 6.98789C214.18 7.06789 214.152 7.13189 214.12 7.17989L214.54 6.62789H210.952V7.58789H215.896C215.904 7.53989 215.908 7.47589 215.908 7.39589C215.916 7.31589 215.92 7.23989 215.92 7.16789C215.92 6.57589 215.808 6.07189 215.584 5.65589C215.36 5.23189 215.032 4.91189 214.6 4.69589C214.176 4.47189 213.66 4.35989 213.052 4.35989C212.444 4.35989 211.916 4.47989 211.468 4.71989C211.02 4.95189 210.672 5.28389 210.424 5.71589C210.184 6.13989 210.064 6.64789 210.064 7.23989C210.064 7.82389 210.184 8.33189 210.424 8.76389C210.672 9.18789 211.02 9.51989 211.468 9.75989C211.916 9.99989 212.44 10.1199 213.04 10.1199Z" fill="white"/>
<path d="M221.566 7.17989L220.342 8.04389C220.526 8.43589 220.782 8.79989 221.11 9.13589C221.438 9.47189 221.822 9.73989 222.262 9.93989C222.71 10.1319 223.19 10.2279 223.702 10.2279C224.086 10.2279 224.45 10.1679 224.794 10.0479C225.146 9.93589 225.462 9.77189 225.742 9.55589C226.022 9.33189 226.242 9.05989 226.402 8.73989C226.562 8.41989 226.642 8.05589 226.642 7.64789C226.642 7.28789 226.582 6.97189 226.462 6.69989C226.35 6.41989 226.19 6.17989 225.982 5.97989C225.782 5.77189 225.554 5.59589 225.298 5.45189C225.05 5.30789 224.79 5.18789 224.518 5.09189C224.094 4.94789 223.742 4.80789 223.462 4.67189C223.182 4.52789 222.974 4.37989 222.838 4.22789C222.702 4.06789 222.634 3.88389 222.634 3.67589C222.634 3.46789 222.718 3.28789 222.886 3.13589C223.054 2.97589 223.306 2.89589 223.642 2.89589C223.898 2.89589 224.126 2.94789 224.326 3.05189C224.526 3.14789 224.702 3.27989 224.854 3.44789C225.014 3.60789 225.15 3.78789 225.262 3.98789L226.606 3.24389C226.462 2.94789 226.258 2.66389 225.994 2.39189C225.738 2.11189 225.414 1.88389 225.022 1.70789C224.638 1.52389 224.178 1.43189 223.642 1.43189C223.122 1.43189 222.65 1.52789 222.226 1.71989C221.81 1.90389 221.478 2.17189 221.23 2.52389C220.99 2.86789 220.87 3.27989 220.87 3.75989C220.87 4.15989 220.946 4.50389 221.098 4.79189C221.25 5.07189 221.442 5.31189 221.674 5.51189C221.906 5.70389 222.15 5.86389 222.406 5.99189C222.67 6.11189 222.902 6.20789 223.102 6.27989C223.478 6.42389 223.794 6.55989 224.05 6.68789C224.314 6.80789 224.51 6.94789 224.638 7.10789C224.774 7.26789 224.842 7.47989 224.842 7.74389C224.842 8.04789 224.734 8.28789 224.518 8.46389C224.302 8.63989 224.022 8.72789 223.678 8.72789C223.382 8.72789 223.106 8.66389 222.85 8.53589C222.594 8.40789 222.358 8.22789 222.142 7.99589C221.934 7.76389 221.742 7.49189 221.566 7.17989Z" fill="white"/>
<path d="M229.001 8.28389C229.001 8.12389 229.037 7.99189 229.109 7.88789C229.181 7.77589 229.293 7.69189 229.445 7.63589C229.597 7.57189 229.793 7.53989 230.033 7.53989C230.329 7.53989 230.609 7.57989 230.873 7.65989C231.145 7.73989 231.389 7.85989 231.605 8.01989V7.29989C231.525 7.20389 231.393 7.10389 231.209 6.99989C231.025 6.89589 230.797 6.80789 230.525 6.73589C230.261 6.66389 229.953 6.62789 229.601 6.62789C228.913 6.62789 228.381 6.78389 228.005 7.09589C227.629 7.40789 227.441 7.83189 227.441 8.36789C227.441 8.74389 227.529 9.06389 227.705 9.32789C227.889 9.58389 228.129 9.77989 228.425 9.91589C228.721 10.0519 229.041 10.1199 229.385 10.1199C229.721 10.1199 230.041 10.0599 230.345 9.93989C230.657 9.81989 230.909 9.63989 231.101 9.39989C231.301 9.15989 231.401 8.86389 231.401 8.51189L231.209 7.79189C231.209 8.05589 231.149 8.28389 231.029 8.47589C230.909 8.65989 230.753 8.80389 230.561 8.90789C230.369 9.00389 230.153 9.05189 229.913 9.05189C229.745 9.05189 229.589 9.02389 229.445 8.96789C229.309 8.90389 229.201 8.81589 229.121 8.70389C229.041 8.58389 229.001 8.44389 229.001 8.28389ZM228.401 6.03989C228.481 5.98389 228.605 5.91589 228.773 5.83589C228.941 5.75589 229.141 5.68789 229.373 5.63189C229.605 5.57589 229.849 5.54789 230.105 5.54789C230.273 5.54789 230.425 5.56389 230.561 5.59589C230.697 5.62789 230.813 5.67989 230.909 5.75189C231.013 5.82389 231.089 5.91589 231.137 6.02789C231.185 6.13189 231.209 6.25989 231.209 6.41189V9.99989H232.709V6.08789C232.709 5.71189 232.605 5.39589 232.397 5.13989C232.189 4.87589 231.901 4.67589 231.533 4.53989C231.165 4.40389 230.745 4.33589 230.273 4.33589C229.761 4.33589 229.297 4.40789 228.881 4.55189C228.465 4.68789 228.113 4.83189 227.825 4.98389L228.401 6.03989Z" fill="white"/>
<path d="M234.155 0.639893V9.99989H235.715V0.639893H234.155Z" fill="white"/>
<path d="M239.853 10.1199C240.517 10.1199 241.085 9.99189 241.557 9.73589C242.037 9.47189 242.421 9.07989 242.709 8.55989L241.353 8.13989C241.193 8.40389 240.989 8.60389 240.741 8.73989C240.501 8.86789 240.209 8.93189 239.865 8.93189C239.561 8.93189 239.301 8.86389 239.085 8.72789C238.869 8.59189 238.705 8.39589 238.593 8.13989C238.489 7.88389 238.437 7.57189 238.437 7.20389C238.445 6.81989 238.501 6.49989 238.605 6.24389C238.717 5.97989 238.873 5.78389 239.073 5.65589C239.281 5.51989 239.537 5.45189 239.841 5.45189C240.089 5.45189 240.305 5.50789 240.489 5.61989C240.673 5.73189 240.813 5.88389 240.909 6.07589C241.013 6.26789 241.065 6.49989 241.065 6.77189C241.065 6.82789 241.049 6.89989 241.017 6.98789C240.993 7.06789 240.965 7.13189 240.933 7.17989L241.353 6.62789H237.765V7.58789H242.709C242.717 7.53989 242.721 7.47589 242.721 7.39589C242.729 7.31589 242.733 7.23989 242.733 7.16789C242.733 6.57589 242.621 6.07189 242.397 5.65589C242.173 5.23189 241.845 4.91189 241.413 4.69589C240.989 4.47189 240.473 4.35989 239.865 4.35989C239.257 4.35989 238.729 4.47989 238.281 4.71989C237.833 4.95189 237.485 5.28389 237.237 5.71589C236.997 6.13989 236.877 6.64789 236.877 7.23989C236.877 7.82389 236.997 8.33189 237.237 8.76389C237.485 9.18789 237.833 9.51989 238.281 9.75989C238.729 9.99989 239.253 10.1199 239.853 10.1199Z" fill="white"/>
<path d="M244.049 9.29189C244.049 9.54789 244.141 9.77189 244.325 9.96389C244.517 10.1559 244.753 10.2519 245.033 10.2519C245.321 10.2519 245.557 10.1559 245.741 9.96389C245.925 9.77189 246.017 9.54789 246.017 9.29189C246.017 9.01989 245.925 8.79189 245.741 8.60789C245.557 8.41589 245.321 8.31989 245.033 8.31989C244.753 8.31989 244.517 8.41589 244.325 8.60789C244.141 8.79189 244.049 9.01989 244.049 9.29189ZM244.049 4.77989C244.049 5.04389 244.141 5.27189 244.325 5.46389C244.517 5.65589 244.753 5.75189 245.033 5.75189C245.321 5.75189 245.557 5.65589 245.741 5.46389C245.925 5.27189 246.017 5.04389 246.017 4.77989C246.017 4.51589 245.925 4.28789 245.741 4.09589C245.557 3.90389 245.321 3.80789 245.033 3.80789C244.753 3.80789 244.517 3.90389 244.325 4.09589C244.141 4.28789 244.049 4.51589 244.049 4.77989Z" fill="white"/>
<path d="M250.712 8.45189H258.008V6.98789H256.292L256.088 7.16789H253.088L255.068 4.33589V7.75589L254.924 7.88789V9.99989H256.688V1.59989H255.524L250.712 8.45189Z" fill="white"/>
<path d="M258.825 3.20789H262.857L259.485 9.99989H261.333L265.377 1.59989H258.825V3.20789Z" fill="white"/>
<path d="M266.35 3.62789C266.35 3.99589 266.422 4.31989 266.566 4.59989C266.718 4.87189 266.918 5.09989 267.166 5.28389C267.422 5.46789 267.71 5.60789 268.03 5.70389C268.35 5.79989 268.682 5.84789 269.026 5.84789C269.37 5.84789 269.702 5.79989 270.022 5.70389C270.342 5.60789 270.626 5.46789 270.874 5.28389C271.13 5.09989 271.33 4.87189 271.474 4.59989C271.626 4.31989 271.702 3.99589 271.702 3.62789C271.702 3.17989 271.578 2.79189 271.33 2.46389C271.09 2.13589 270.766 1.88389 270.358 1.70789C269.958 1.52389 269.514 1.43189 269.026 1.43189C268.53 1.43189 268.078 1.52389 267.67 1.70789C267.27 1.88389 266.95 2.13589 266.71 2.46389C266.47 2.79189 266.35 3.17989 266.35 3.62789ZM267.958 3.79589C267.958 3.58789 268.002 3.39989 268.09 3.23189C268.186 3.06389 268.314 2.93589 268.474 2.84789C268.634 2.75989 268.818 2.71589 269.026 2.71589C269.234 2.71589 269.418 2.75989 269.578 2.84789C269.738 2.93589 269.862 3.06389 269.95 3.23189C270.038 3.39989 270.082 3.58789 270.082 3.79589C270.082 4.01189 270.034 4.19989 269.938 4.35989C269.85 4.51989 269.726 4.64789 269.566 4.74389C269.406 4.83189 269.226 4.87589 269.026 4.87589C268.826 4.87589 268.646 4.83189 268.486 4.74389C268.326 4.64789 268.198 4.51989 268.102 4.35989C268.006 4.19989 267.958 4.01189 267.958 3.79589ZM266.05 7.71989C266.05 8.08789 266.126 8.42389 266.278 8.72789C266.438 9.02389 266.658 9.27989 266.938 9.49589C267.218 9.71189 267.534 9.87989 267.886 9.99989C268.246 10.1119 268.626 10.1679 269.026 10.1679C269.426 10.1679 269.802 10.1119 270.154 9.99989C270.514 9.87989 270.83 9.71189 271.102 9.49589C271.382 9.27989 271.602 9.02389 271.762 8.72789C271.922 8.42389 272.002 8.08789 272.002 7.71989C272.002 7.29589 271.914 6.93189 271.738 6.62789C271.562 6.31589 271.326 6.05989 271.03 5.85989C270.742 5.65989 270.422 5.51189 270.07 5.41589C269.718 5.31989 269.37 5.27189 269.026 5.27189C268.682 5.27189 268.334 5.31989 267.982 5.41589C267.63 5.51189 267.306 5.65989 267.01 5.85989C266.722 6.05989 266.49 6.31589 266.314 6.62789C266.138 6.93189 266.05 7.29589 266.05 7.71989ZM267.742 7.46789C267.742 7.23589 267.798 7.02389 267.91 6.83189C268.03 6.63989 268.186 6.48789 268.378 6.37589C268.578 6.26389 268.794 6.20789 269.026 6.20789C269.25 6.20789 269.458 6.26389 269.65 6.37589C269.85 6.48789 270.01 6.63989 270.13 6.83189C270.25 7.02389 270.31 7.23589 270.31 7.46789C270.31 7.74789 270.25 7.98389 270.13 8.17589C270.01 8.35989 269.85 8.50389 269.65 8.60789C269.458 8.70389 269.25 8.75189 269.026 8.75189C268.794 8.75189 268.578 8.70389 268.378 8.60789C268.186 8.50389 268.03 8.35989 267.91 8.17589C267.798 7.98389 267.742 7.74789 267.742 7.46789Z" fill="white"/>
<path d="M239.436 151.66L237.072 146.02L234.732 151.66L232.908 146.44H230.892L234.42 155.308L237.072 149.788L239.712 155.308L243.252 146.44H241.236L239.436 151.66Z" fill="white"/>
<path d="M245.64 145.48H244.08V154.84H245.64V145.48ZM247.644 151.48V154.84H249.204V151.252C249.204 150.796 249.136 150.412 249 150.1C248.864 149.78 248.656 149.54 248.376 149.38C248.096 149.22 247.74 149.14 247.308 149.14C246.876 149.14 246.512 149.244 246.216 149.452C245.92 149.66 245.696 149.94 245.544 150.292C245.4 150.644 245.328 151.04 245.328 151.48H245.64C245.64 151.248 245.684 151.048 245.772 150.88C245.86 150.712 245.988 150.584 246.156 150.496C246.324 150.4 246.516 150.352 246.732 150.352C247.06 150.352 247.292 150.448 247.428 150.64C247.572 150.832 247.644 151.112 247.644 151.48Z" fill="white"/>
<path d="M250.665 147.184C250.665 147.432 250.757 147.64 250.941 147.808C251.125 147.976 251.345 148.06 251.601 148.06C251.857 148.06 252.073 147.976 252.249 147.808C252.433 147.64 252.525 147.432 252.525 147.184C252.525 146.928 252.433 146.72 252.249 146.56C252.073 146.392 251.857 146.308 251.601 146.308C251.345 146.308 251.125 146.392 250.941 146.56C250.757 146.72 250.665 146.928 250.665 147.184ZM250.833 149.32V154.84H252.345V149.32H250.833Z" fill="white"/>
<path d="M253.286 149.32V150.628H256.694V149.32H253.286ZM254.234 147.4V154.84H255.734V147.4H254.234Z" fill="white"/>
<path d="M260.126 154.96C260.79 154.96 261.358 154.832 261.83 154.576C262.31 154.312 262.694 153.92 262.982 153.4L261.626 152.98C261.466 153.244 261.262 153.444 261.014 153.58C260.774 153.708 260.482 153.772 260.138 153.772C259.834 153.772 259.574 153.704 259.358 153.568C259.142 153.432 258.978 153.236 258.866 152.98C258.762 152.724 258.71 152.412 258.71 152.044C258.718 151.66 258.774 151.34 258.878 151.084C258.99 150.82 259.146 150.624 259.346 150.496C259.554 150.36 259.81 150.292 260.114 150.292C260.362 150.292 260.578 150.348 260.762 150.46C260.946 150.572 261.086 150.724 261.182 150.916C261.286 151.108 261.338 151.34 261.338 151.612C261.338 151.668 261.322 151.74 261.29 151.828C261.266 151.908 261.238 151.972 261.206 152.02L261.626 151.468H258.038V152.428H262.982C262.99 152.38 262.994 152.316 262.994 152.236C263.002 152.156 263.006 152.08 263.006 152.008C263.006 151.416 262.894 150.912 262.67 150.496C262.446 150.072 262.118 149.752 261.686 149.536C261.262 149.312 260.746 149.2 260.138 149.2C259.53 149.2 259.002 149.32 258.554 149.56C258.106 149.792 257.758 150.124 257.51 150.556C257.27 150.98 257.15 151.488 257.15 152.08C257.15 152.664 257.27 153.172 257.51 153.604C257.758 154.028 258.106 154.36 258.554 154.6C259.002 154.84 259.526 154.96 260.126 154.96Z" fill="white"/>
<path d="M264.178 145.48V154.84H265.738V145.48H264.178Z" fill="white"/>
<path d="M267.2 147.184C267.2 147.432 267.292 147.64 267.476 147.808C267.66 147.976 267.88 148.06 268.136 148.06C268.392 148.06 268.608 147.976 268.784 147.808C268.968 147.64 269.06 147.432 269.06 147.184C269.06 146.928 268.968 146.72 268.784 146.56C268.608 146.392 268.392 146.308 268.136 146.308C267.88 146.308 267.66 146.392 267.476 146.56C267.292 146.72 267.2 146.928 267.2 147.184ZM267.368 149.32V154.84H268.88V149.32H267.368Z" fill="white"/>
<path d="M270.805 152.932L270.049 153.904C270.257 154.104 270.489 154.292 270.745 154.468C271.009 154.636 271.301 154.772 271.621 154.876C271.949 154.98 272.309 155.032 272.701 155.032C273.333 155.032 273.829 154.88 274.189 154.576C274.549 154.264 274.729 153.832 274.729 153.28C274.729 152.944 274.653 152.672 274.501 152.464C274.349 152.256 274.145 152.084 273.889 151.948C273.641 151.804 273.369 151.676 273.073 151.564C272.833 151.46 272.617 151.372 272.425 151.3C272.241 151.228 272.097 151.148 271.993 151.06C271.897 150.964 271.849 150.856 271.849 150.736C271.849 150.6 271.897 150.5 271.993 150.436C272.097 150.364 272.237 150.328 272.413 150.328C272.677 150.328 272.945 150.396 273.217 150.532C273.497 150.668 273.737 150.844 273.937 151.06L274.621 150.1C274.445 149.924 274.241 149.772 274.009 149.644C273.777 149.508 273.525 149.4 273.253 149.32C272.981 149.24 272.689 149.2 272.377 149.2C272.009 149.2 271.673 149.26 271.369 149.38C271.073 149.492 270.837 149.664 270.661 149.896C270.485 150.12 270.397 150.396 270.397 150.724C270.397 151.068 270.473 151.352 270.625 151.576C270.785 151.792 270.985 151.968 271.225 152.104C271.465 152.232 271.713 152.344 271.969 152.44C272.241 152.528 272.465 152.612 272.641 152.692C272.817 152.772 272.949 152.864 273.037 152.968C273.133 153.064 273.181 153.184 273.181 153.328C273.181 153.488 273.125 153.616 273.013 153.712C272.901 153.8 272.741 153.844 272.533 153.844C272.373 153.844 272.201 153.812 272.017 153.748C271.841 153.684 271.653 153.588 271.453 153.46C271.253 153.324 271.037 153.148 270.805 152.932Z" fill="white"/>
<path d="M275.095 149.32V150.628H278.503V149.32H275.095ZM276.043 147.4V154.84H277.543V147.4H276.043Z" fill="white"/>
<path d="M279.474 154.132C279.474 154.388 279.566 154.612 279.75 154.804C279.942 154.996 280.178 155.092 280.458 155.092C280.746 155.092 280.982 154.996 281.166 154.804C281.35 154.612 281.442 154.388 281.442 154.132C281.442 153.86 281.35 153.632 281.166 153.448C280.982 153.256 280.746 153.16 280.458 153.16C280.178 153.16 279.942 153.256 279.75 153.448C279.566 153.632 279.474 153.86 279.474 154.132ZM279.474 149.62C279.474 149.884 279.566 150.112 279.75 150.304C279.942 150.496 280.178 150.592 280.458 150.592C280.746 150.592 280.982 150.496 281.166 150.304C281.35 150.112 281.442 149.884 281.442 149.62C281.442 149.356 281.35 149.128 281.166 148.936C280.982 148.744 280.746 148.648 280.458 148.648C280.178 148.648 279.942 148.744 279.75 148.936C279.566 149.128 279.474 149.356 279.474 149.62Z" fill="white"/>
<path d="M234.036 167.748C234.668 167.748 235.232 167.664 235.728 167.496C236.224 167.328 236.616 167.084 236.904 166.764C237.192 166.436 237.336 166.044 237.336 165.588C237.336 165.164 237.228 164.78 237.012 164.436C236.796 164.092 236.48 163.816 236.064 163.608C235.656 163.4 235.16 163.296 234.576 163.296C234.024 163.296 233.54 163.404 233.124 163.62C232.708 163.836 232.38 164.132 232.14 164.508C231.908 164.876 231.792 165.3 231.792 165.78H233.388C233.388 165.468 233.5 165.212 233.724 165.012C233.956 164.804 234.24 164.7 234.576 164.7C234.816 164.7 235.012 164.74 235.164 164.82C235.316 164.9 235.432 165.016 235.512 165.168C235.592 165.32 235.632 165.496 235.632 165.696C235.632 165.856 235.592 166.012 235.512 166.164C235.44 166.308 235.336 166.44 235.2 166.56C235.064 166.672 234.896 166.76 234.696 166.824C234.504 166.888 234.284 166.92 234.036 166.92V167.748ZM234.504 172.008C235.128 172.008 235.668 171.908 236.124 171.708C236.588 171.5 236.944 171.212 237.192 170.844C237.448 170.476 237.576 170.052 237.576 169.572C237.576 169.148 237.488 168.788 237.312 168.492C237.136 168.188 236.888 167.94 236.568 167.748C236.248 167.548 235.872 167.404 235.44 167.316C235.016 167.228 234.548 167.184 234.036 167.184V168.096C234.332 168.096 234.592 168.128 234.816 168.192C235.048 168.248 235.24 168.332 235.392 168.444C235.552 168.556 235.672 168.696 235.752 168.864C235.832 169.024 235.872 169.2 235.872 169.392C235.872 169.656 235.816 169.876 235.704 170.052C235.592 170.228 235.436 170.364 235.236 170.46C235.044 170.548 234.816 170.592 234.552 170.592C234.296 170.592 234.06 170.544 233.844 170.448C233.628 170.344 233.456 170.196 233.328 170.004C233.2 169.812 233.136 169.58 233.136 169.308H231.432C231.432 169.668 231.504 170.012 231.648 170.34C231.792 170.66 231.996 170.948 232.26 171.204C232.524 171.452 232.844 171.648 233.22 171.792C233.596 171.936 234.024 172.008 234.504 172.008Z" fill="white"/>
<path d="M240.128 167.64C240.128 167.216 240.168 166.832 240.248 166.488C240.328 166.136 240.444 165.836 240.596 165.588C240.748 165.332 240.928 165.136 241.136 165C241.344 164.864 241.576 164.796 241.832 164.796C242.096 164.796 242.332 164.864 242.54 165C242.748 165.136 242.928 165.332 243.08 165.588C243.232 165.836 243.348 166.136 243.428 166.488C243.508 166.832 243.548 167.216 243.548 167.64C243.548 168.064 243.508 168.452 243.428 168.804C243.348 169.148 243.232 169.448 243.08 169.704C242.928 169.952 242.748 170.144 242.54 170.28C242.332 170.416 242.096 170.484 241.832 170.484C241.576 170.484 241.344 170.416 241.136 170.28C240.928 170.144 240.748 169.952 240.596 169.704C240.444 169.448 240.328 169.148 240.248 168.804C240.168 168.452 240.128 168.064 240.128 167.64ZM238.46 167.64C238.46 168.528 238.6 169.296 238.88 169.944C239.168 170.592 239.564 171.096 240.068 171.456C240.58 171.808 241.168 171.984 241.832 171.984C242.52 171.984 243.116 171.808 243.62 171.456C244.124 171.096 244.516 170.592 244.796 169.944C245.076 169.296 245.216 168.528 245.216 167.64C245.216 166.752 245.076 165.984 244.796 165.336C244.516 164.688 244.124 164.188 243.62 163.836C243.116 163.476 242.52 163.296 241.832 163.296C241.168 163.296 240.58 163.476 240.068 163.836C239.564 164.188 239.168 164.688 238.88 165.336C238.6 165.984 238.46 166.752 238.46 167.64Z" fill="white"/>
<path d="M245.931 171.84H252.687V170.268H249.171L251.355 168.204C251.707 167.884 251.991 167.528 252.207 167.136C252.423 166.744 252.531 166.324 252.531 165.876C252.531 165.572 252.467 165.268 252.339 164.964C252.219 164.66 252.031 164.384 251.775 164.136C251.527 163.88 251.211 163.676 250.827 163.524C250.451 163.364 250.011 163.284 249.507 163.284C248.827 163.284 248.251 163.428 247.779 163.716C247.315 163.996 246.963 164.376 246.723 164.856C246.483 165.336 246.363 165.876 246.363 166.476H248.043C248.043 166.14 248.099 165.844 248.211 165.588C248.331 165.332 248.495 165.136 248.703 165C248.919 164.856 249.175 164.784 249.471 164.784C249.679 164.784 249.863 164.82 250.023 164.892C250.183 164.956 250.319 165.044 250.431 165.156C250.543 165.268 250.627 165.396 250.683 165.54C250.739 165.684 250.767 165.832 250.767 165.984C250.767 166.2 250.727 166.408 250.647 166.608C250.567 166.808 250.451 167.008 250.299 167.208C250.147 167.408 249.963 167.624 249.747 167.856L245.931 171.84Z" fill="white"/>
<path d="M254.174 165.468C254.174 165.836 254.246 166.16 254.39 166.44C254.542 166.712 254.742 166.94 254.99 167.124C255.246 167.308 255.534 167.448 255.854 167.544C256.174 167.64 256.506 167.688 256.85 167.688C257.194 167.688 257.526 167.64 257.846 167.544C258.166 167.448 258.45 167.308 258.698 167.124C258.954 166.94 259.154 166.712 259.298 166.44C259.45 166.16 259.526 165.836 259.526 165.468C259.526 165.02 259.402 164.632 259.154 164.304C258.914 163.976 258.59 163.724 258.182 163.548C257.782 163.364 257.338 163.272 256.85 163.272C256.354 163.272 255.902 163.364 255.494 163.548C255.094 163.724 254.774 163.976 254.534 164.304C254.294 164.632 254.174 165.02 254.174 165.468ZM255.782 165.636C255.782 165.428 255.826 165.24 255.914 165.072C256.01 164.904 256.138 164.776 256.298 164.688C256.458 164.6 256.642 164.556 256.85 164.556C257.058 164.556 257.242 164.6 257.402 164.688C257.562 164.776 257.686 164.904 257.774 165.072C257.862 165.24 257.906 165.428 257.906 165.636C257.906 165.852 257.858 166.04 257.762 166.2C257.674 166.36 257.55 166.488 257.39 166.584C257.23 166.672 257.05 166.716 256.85 166.716C256.65 166.716 256.47 166.672 256.31 166.584C256.15 166.488 256.022 166.36 255.926 166.2C255.83 166.04 255.782 165.852 255.782 165.636ZM253.874 169.56C253.874 169.928 253.95 170.264 254.102 170.568C254.262 170.864 254.482 171.12 254.762 171.336C255.042 171.552 255.358 171.72 255.71 171.84C256.07 171.952 256.45 172.008 256.85 172.008C257.25 172.008 257.626 171.952 257.978 171.84C258.338 171.72 258.654 171.552 258.926 171.336C259.206 171.12 259.426 170.864 259.586 170.568C259.746 170.264 259.826 169.928 259.826 169.56C259.826 169.136 259.738 168.772 259.562 168.468C259.386 168.156 259.15 167.9 258.854 167.7C258.566 167.5 258.246 167.352 257.894 167.256C257.542 167.16 257.194 167.112 256.85 167.112C256.506 167.112 256.158 167.16 255.806 167.256C255.454 167.352 255.13 167.5 254.834 167.7C254.546 167.9 254.314 168.156 254.138 168.468C253.962 168.772 253.874 169.136 253.874 169.56ZM255.566 169.308C255.566 169.076 255.622 168.864 255.734 168.672C255.854 168.48 256.01 168.328 256.202 168.216C256.402 168.104 256.618 168.048 256.85 168.048C257.074 168.048 257.282 168.104 257.474 168.216C257.674 168.328 257.834 168.48 257.954 168.672C258.074 168.864 258.134 169.076 258.134 169.308C258.134 169.588 258.074 169.824 257.954 170.016C257.834 170.2 257.674 170.344 257.474 170.448C257.282 170.544 257.074 170.592 256.85 170.592C256.618 170.592 256.402 170.544 256.202 170.448C256.01 170.344 255.854 170.2 255.734 170.016C255.622 169.824 255.566 169.588 255.566 169.308Z" fill="white"/>
<path d="M0.912234 40.5999V48.9999H2.62823V40.5999H0.912234ZM1.95623 42.0519H3.62423C4.08023 42.0519 4.44024 42.1559 4.70424 42.3639C4.96824 42.5639 5.10023 42.8679 5.10023 43.2759C5.10023 43.6759 4.96824 43.9799 4.70424 44.1879C4.44024 44.3959 4.08023 44.4999 3.62423 44.4999H1.95623V45.9519H3.62423C4.28823 45.9519 4.85223 45.8439 5.31623 45.6279C5.78823 45.4119 6.14824 45.1039 6.39624 44.7039C6.64424 44.2959 6.76823 43.8199 6.76823 43.2759C6.76823 42.7239 6.64424 42.2479 6.39624 41.8479C6.14824 41.4479 5.78823 41.1399 5.31623 40.9239C4.85223 40.7079 4.28823 40.5999 3.62423 40.5999H1.95623V42.0519Z" fill="white"/>
<path d="M9.32545 46.8399V43.4799H7.71745V47.0079C7.71745 47.6639 7.87745 48.1799 8.19745 48.5559C8.52545 48.9319 9.01745 49.1199 9.67345 49.1199C10.0655 49.1199 10.3975 49.0399 10.6695 48.8799C10.9415 48.7119 11.1655 48.4719 11.3415 48.1599V48.9999H12.8895V43.4799H11.3415V46.8399C11.3415 47.0719 11.2935 47.2719 11.1975 47.4399C11.1095 47.6079 10.9815 47.7399 10.8135 47.8359C10.6535 47.9239 10.4615 47.9679 10.2375 47.9679C9.91745 47.9679 9.68545 47.8719 9.54145 47.6799C9.39745 47.4799 9.32545 47.1999 9.32545 46.8399Z" fill="white"/>
<path d="M15.9446 39.6399H14.3846V48.9999H15.9446V39.6399ZM20.4806 46.2399C20.4806 45.6239 20.3566 45.1039 20.1086 44.6799C19.8606 44.2479 19.5326 43.9199 19.1246 43.6959C18.7246 43.4719 18.2926 43.3599 17.8286 43.3599C17.3726 43.3599 16.9646 43.4759 16.6046 43.7079C16.2526 43.9399 15.9726 44.2719 15.7646 44.7039C15.5566 45.1279 15.4526 45.6399 15.4526 46.2399C15.4526 46.8319 15.5566 47.3439 15.7646 47.7759C15.9726 48.2079 16.2526 48.5399 16.6046 48.7719C16.9646 49.0039 17.3726 49.1199 17.8286 49.1199C18.2926 49.1199 18.7246 49.0079 19.1246 48.7839C19.5326 48.5599 19.8606 48.2319 20.1086 47.7999C20.3566 47.3679 20.4806 46.8479 20.4806 46.2399ZM18.8726 46.2399C18.8726 46.5679 18.8046 46.8519 18.6686 47.0919C18.5326 47.3319 18.3486 47.5159 18.1166 47.6439C17.8926 47.7719 17.6446 47.8359 17.3726 47.8359C17.1406 47.8359 16.9126 47.7759 16.6886 47.6559C16.4726 47.5279 16.2926 47.3439 16.1486 47.1039C16.0126 46.8639 15.9446 46.5759 15.9446 46.2399C15.9446 45.9039 16.0126 45.6159 16.1486 45.3759C16.2926 45.1359 16.4726 44.9559 16.6886 44.8359C16.9126 44.7079 17.1406 44.6439 17.3726 44.6439C17.6446 44.6439 17.8926 44.7079 18.1166 44.8359C18.3486 44.9639 18.5326 45.1479 18.6686 45.3879C18.8046 45.6279 18.8726 45.9119 18.8726 46.2399Z" fill="white"/>
<path d="M21.6393 39.6399V48.9999H23.1993V39.6399H21.6393Z" fill="white"/>
<path d="M24.6611 41.3439C24.6611 41.5919 24.7531 41.7999 24.9371 41.9679C25.1211 42.1359 25.3411 42.2199 25.5971 42.2199C25.8531 42.2199 26.0691 42.1359 26.2451 41.9679C26.4291 41.7999 26.5211 41.5919 26.5211 41.3439C26.5211 41.0879 26.4291 40.8799 26.2451 40.7199C26.0691 40.5519 25.8531 40.4679 25.5971 40.4679C25.3411 40.4679 25.1211 40.5519 24.9371 40.7199C24.7531 40.8799 24.6611 41.0879 24.6611 41.3439ZM24.8291 43.4799V48.9999H26.3411V43.4799H24.8291Z" fill="white"/>
<path d="M29.1669 46.2399C29.1669 45.9279 29.2389 45.6519 29.3829 45.4119C29.5269 45.1719 29.7189 44.9839 29.9589 44.8479C30.2069 44.7039 30.4789 44.6319 30.7749 44.6319C30.9989 44.6319 31.2229 44.6679 31.4469 44.7399C31.6709 44.8119 31.8749 44.9159 32.0589 45.0519C32.2509 45.1799 32.3949 45.3319 32.4909 45.5079V43.9119C32.2989 43.7439 32.0469 43.6119 31.7349 43.5159C31.4309 43.4119 31.0749 43.3599 30.6669 43.3599C30.0829 43.3599 29.5549 43.4799 29.0829 43.7199C28.6189 43.9599 28.2509 44.2959 27.9789 44.7279C27.7149 45.1599 27.5829 45.6639 27.5829 46.2399C27.5829 46.8079 27.7149 47.3119 27.9789 47.7519C28.2509 48.1839 28.6189 48.5199 29.0829 48.7599C29.5549 48.9999 30.0829 49.1199 30.6669 49.1199C31.0749 49.1199 31.4309 49.0719 31.7349 48.9759C32.0469 48.8719 32.2989 48.7319 32.4909 48.5559V46.9599C32.3949 47.1359 32.2549 47.2919 32.0709 47.4279C31.8949 47.5559 31.6949 47.6599 31.4709 47.7399C31.2469 47.8119 31.0149 47.8479 30.7749 47.8479C30.4789 47.8479 30.2069 47.7799 29.9589 47.6439C29.7189 47.5079 29.5269 47.3199 29.3829 47.0799C29.2389 46.8399 29.1669 46.5599 29.1669 46.2399Z" fill="white"/>
<path d="M38.3356 46.1799L37.1116 47.0439C37.2956 47.4359 37.5516 47.7999 37.8796 48.1359C38.2076 48.4719 38.5916 48.7399 39.0316 48.9399C39.4796 49.1319 39.9596 49.2279 40.4716 49.2279C40.8556 49.2279 41.2196 49.1679 41.5636 49.0479C41.9156 48.9359 42.2316 48.7719 42.5116 48.5559C42.7916 48.3319 43.0116 48.0599 43.1716 47.7399C43.3316 47.4199 43.4116 47.0559 43.4116 46.6479C43.4116 46.2879 43.3516 45.9719 43.2316 45.6999C43.1196 45.4199 42.9596 45.1799 42.7516 44.9799C42.5516 44.7719 42.3236 44.5959 42.0676 44.4519C41.8196 44.3079 41.5596 44.1879 41.2876 44.0919C40.8636 43.9479 40.5116 43.8079 40.2316 43.6719C39.9516 43.5279 39.7436 43.3799 39.6076 43.2279C39.4716 43.0679 39.4036 42.8839 39.4036 42.6759C39.4036 42.4679 39.4876 42.2879 39.6556 42.1359C39.8236 41.9759 40.0756 41.8959 40.4116 41.8959C40.6676 41.8959 40.8956 41.9479 41.0956 42.0519C41.2956 42.1479 41.4716 42.2799 41.6236 42.4479C41.7836 42.6079 41.9196 42.7879 42.0316 42.9879L43.3756 42.2439C43.2316 41.9479 43.0276 41.6639 42.7636 41.3919C42.5076 41.1119 42.1836 40.8839 41.7916 40.7079C41.4076 40.5239 40.9476 40.4319 40.4116 40.4319C39.8916 40.4319 39.4196 40.5279 38.9956 40.7199C38.5796 40.9039 38.2476 41.1719 37.9996 41.5239C37.7596 41.8679 37.6396 42.2799 37.6396 42.7599C37.6396 43.1599 37.7156 43.5039 37.8676 43.7919C38.0196 44.0719 38.2116 44.3119 38.4436 44.5119C38.6756 44.7039 38.9196 44.8639 39.1756 44.9919C39.4396 45.1119 39.6716 45.2079 39.8716 45.2799C40.2476 45.4239 40.5636 45.5599 40.8196 45.6879C41.0836 45.8079 41.2796 45.9479 41.4076 46.1079C41.5436 46.2679 41.6116 46.4799 41.6116 46.7439C41.6116 47.0479 41.5036 47.2879 41.2876 47.4639C41.0716 47.6399 40.7916 47.7279 40.4476 47.7279C40.1516 47.7279 39.8756 47.6639 39.6196 47.5359C39.3636 47.4079 39.1276 47.2279 38.9116 46.9959C38.7036 46.7639 38.5116 46.4919 38.3356 46.1799Z" fill="white"/>
<path d="M45.7707 47.2839C45.7707 47.1239 45.8067 46.9919 45.8787 46.8879C45.9507 46.7759 46.0627 46.6919 46.2147 46.6359C46.3667 46.5719 46.5627 46.5399 46.8027 46.5399C47.0987 46.5399 47.3787 46.5799 47.6427 46.6599C47.9147 46.7399 48.1587 46.8599 48.3747 47.0199V46.2999C48.2947 46.2039 48.1627 46.1039 47.9787 45.9999C47.7947 45.8959 47.5667 45.8079 47.2947 45.7359C47.0307 45.6639 46.7227 45.6279 46.3707 45.6279C45.6827 45.6279 45.1507 45.7839 44.7747 46.0959C44.3987 46.4079 44.2107 46.8319 44.2107 47.3679C44.2107 47.7439 44.2987 48.0639 44.4747 48.3279C44.6587 48.5839 44.8987 48.7799 45.1947 48.9159C45.4907 49.0519 45.8107 49.1199 46.1547 49.1199C46.4907 49.1199 46.8107 49.0599 47.1147 48.9399C47.4267 48.8199 47.6787 48.6399 47.8707 48.3999C48.0707 48.1599 48.1707 47.8639 48.1707 47.5119L47.9787 46.7919C47.9787 47.0559 47.9187 47.2839 47.7987 47.4759C47.6787 47.6599 47.5227 47.8039 47.3307 47.9079C47.1387 48.0039 46.9227 48.0519 46.6827 48.0519C46.5147 48.0519 46.3587 48.0239 46.2147 47.9679C46.0787 47.9039 45.9707 47.8159 45.8907 47.7039C45.8107 47.5839 45.7707 47.4439 45.7707 47.2839ZM45.1707 45.0399C45.2507 44.9839 45.3747 44.9159 45.5427 44.8359C45.7107 44.7559 45.9107 44.6879 46.1427 44.6319C46.3747 44.5759 46.6187 44.5479 46.8747 44.5479C47.0427 44.5479 47.1947 44.5639 47.3307 44.5959C47.4667 44.6279 47.5827 44.6799 47.6787 44.7519C47.7827 44.8239 47.8587 44.9159 47.9067 45.0279C47.9547 45.1319 47.9787 45.2599 47.9787 45.4119V48.9999H49.4787V45.0879C49.4787 44.7119 49.3747 44.3959 49.1667 44.1399C48.9587 43.8759 48.6707 43.6759 48.3027 43.5399C47.9347 43.4039 47.5147 43.3359 47.0427 43.3359C46.5307 43.3359 46.0667 43.4079 45.6507 43.5519C45.2347 43.6879 44.8827 43.8319 44.5947 43.9839L45.1707 45.0399Z" fill="white"/>
<path d="M50.9245 39.6399V48.9999H52.4845V39.6399H50.9245Z" fill="white"/>
<path d="M56.6222 49.1199C57.2862 49.1199 57.8542 48.9919 58.3262 48.7359C58.8062 48.4719 59.1902 48.0799 59.4782 47.5599L58.1222 47.1399C57.9622 47.4039 57.7582 47.6039 57.5102 47.7399C57.2702 47.8679 56.9782 47.9319 56.6342 47.9319C56.3302 47.9319 56.0702 47.8639 55.8542 47.7279C55.6382 47.5919 55.4742 47.3959 55.3622 47.1399C55.2582 46.8839 55.2062 46.5719 55.2062 46.2039C55.2142 45.8199 55.2702 45.4999 55.3742 45.2439C55.4862 44.9799 55.6422 44.7839 55.8422 44.6559C56.0502 44.5199 56.3062 44.4519 56.6102 44.4519C56.8582 44.4519 57.0742 44.5079 57.2582 44.6199C57.4422 44.7319 57.5822 44.8839 57.6782 45.0759C57.7822 45.2679 57.8342 45.4999 57.8342 45.7719C57.8342 45.8279 57.8182 45.8999 57.7862 45.9879C57.7622 46.0679 57.7342 46.1319 57.7022 46.1799L58.1222 45.6279H54.5342V46.5879H59.4782C59.4862 46.5399 59.4902 46.4759 59.4902 46.3959C59.4982 46.3159 59.5022 46.2399 59.5022 46.1679C59.5022 45.5759 59.3902 45.0719 59.1662 44.6559C58.9422 44.2319 58.6142 43.9119 58.1822 43.6959C57.7582 43.4719 57.2422 43.3599 56.6342 43.3599C56.0262 43.3599 55.4982 43.4799 55.0502 43.7199C54.6022 43.9519 54.2542 44.2839 54.0062 44.7159C53.7662 45.1399 53.6462 45.6479 53.6462 46.2399C53.6462 46.8239 53.7662 47.3319 54.0062 47.7639C54.2542 48.1879 54.6022 48.5199 55.0502 48.7599C55.4982 48.9999 56.0222 49.1199 56.6222 49.1199Z" fill="white"/>
<path d="M60.8185 48.2919C60.8185 48.5479 60.9105 48.7719 61.0945 48.9639C61.2865 49.1559 61.5225 49.2519 61.8025 49.2519C62.0905 49.2519 62.3265 49.1559 62.5105 48.9639C62.6945 48.7719 62.7865 48.5479 62.7865 48.2919C62.7865 48.0199 62.6945 47.7919 62.5105 47.6079C62.3265 47.4159 62.0905 47.3199 61.8025 47.3199C61.5225 47.3199 61.2865 47.4159 61.0945 47.6079C60.9105 47.7919 60.8185 48.0199 60.8185 48.2919ZM60.8185 43.7799C60.8185 44.0439 60.9105 44.2719 61.0945 44.4639C61.2865 44.6559 61.5225 44.7519 61.8025 44.7519C62.0905 44.7519 62.3265 44.6559 62.5105 44.4639C62.6945 44.2719 62.7865 44.0439 62.7865 43.7799C62.7865 43.5159 62.6945 43.2879 62.5105 43.0959C62.3265 42.9039 62.0905 42.8079 61.8025 42.8079C61.5225 42.8079 61.2865 42.9039 61.0945 43.0959C60.9105 43.2879 60.8185 43.5159 60.8185 43.7799Z" fill="white"/>
<path d="M0.240234 65.9999H6.99623V64.4279H3.48023L5.66424 62.3639C6.01624 62.0439 6.30024 61.6879 6.51624 61.2959C6.73224 60.9039 6.84023 60.4839 6.84023 60.0359C6.84023 59.7319 6.77623 59.4279 6.64823 59.1239C6.52823 58.8199 6.34024 58.5439 6.08424 58.2959C5.83624 58.0399 5.52024 57.8359 5.13624 57.6839C4.76024 57.5239 4.32023 57.4439 3.81623 57.4439C3.13623 57.4439 2.56023 57.5879 2.08823 57.8759C1.62423 58.1559 1.27223 58.5359 1.03223 59.0159C0.792234 59.4959 0.672234 60.0359 0.672234 60.6359H2.35223C2.35223 60.2999 2.40823 60.0039 2.52023 59.7479C2.64023 59.4919 2.80423 59.2959 3.01223 59.1599C3.22823 59.0159 3.48423 58.9439 3.78023 58.9439C3.98823 58.9439 4.17223 58.9799 4.33223 59.0519C4.49223 59.1159 4.62823 59.2039 4.74023 59.3159C4.85223 59.4279 4.93623 59.5559 4.99223 59.6999C5.04823 59.8439 5.07623 59.9919 5.07623 60.1439C5.07623 60.3599 5.03623 60.5679 4.95623 60.7679C4.87624 60.9679 4.76023 61.1679 4.60823 61.3679C4.45623 61.5679 4.27223 61.7839 4.05623 62.0159L0.240234 65.9999Z" fill="white"/>
<path d="M14.5071 63.2879C14.5071 62.7119 14.3871 62.2199 14.1471 61.8119C13.9151 61.3959 13.6071 61.0759 13.2231 60.8519C12.8391 60.6279 12.4191 60.5159 11.9631 60.5159C11.7151 60.5159 11.4711 60.5399 11.2311 60.5879C10.9991 60.6279 10.7791 60.7039 10.5711 60.8159L11.0751 59.0879H14.3751V57.5999H9.80311L8.65111 62.3279C8.93911 62.1679 9.21111 62.0479 9.46711 61.9679C9.73111 61.8799 9.98711 61.8199 10.2351 61.7879C10.4831 61.7479 10.7191 61.7279 10.9431 61.7279C11.2471 61.7279 11.5271 61.7839 11.7831 61.8959C12.0471 61.9999 12.2551 62.1559 12.4071 62.3639C12.5671 62.5719 12.6471 62.8279 12.6471 63.1319C12.6471 63.4439 12.5791 63.7079 12.4431 63.9239C12.3071 64.1319 12.1111 64.2919 11.8551 64.4039C11.6071 64.5159 11.3031 64.5719 10.9431 64.5719C10.7111 64.5719 10.4671 64.5279 10.2111 64.4399C9.95511 64.3439 9.70711 64.2159 9.46711 64.0559C9.23511 63.8959 9.01911 63.7159 8.81911 63.5159L8.01511 64.8479C8.24711 65.0799 8.51511 65.2959 8.81911 65.4959C9.12311 65.6879 9.47511 65.8439 9.87511 65.9639C10.2831 66.0839 10.7431 66.1439 11.2551 66.1439C11.6631 66.1439 12.0591 66.0879 12.4431 65.9759C12.8271 65.8639 13.1751 65.6919 13.4871 65.4599C13.7991 65.2279 14.0471 64.9319 14.2311 64.5719C14.4151 64.2119 14.5071 63.7839 14.5071 63.2879Z" fill="white"/>
<path d="M17.1365 61.7999C17.1365 61.3759 17.1765 60.9919 17.2565 60.6479C17.3365 60.2959 17.4525 59.9959 17.6045 59.7479C17.7565 59.4919 17.9365 59.2959 18.1445 59.1599C18.3525 59.0239 18.5845 58.9559 18.8405 58.9559C19.1045 58.9559 19.3405 59.0239 19.5485 59.1599C19.7565 59.2959 19.9365 59.4919 20.0885 59.7479C20.2405 59.9959 20.3565 60.2959 20.4365 60.6479C20.5165 60.9919 20.5565 61.3759 20.5565 61.7999C20.5565 62.2239 20.5165 62.6119 20.4365 62.9639C20.3565 63.3079 20.2405 63.6079 20.0885 63.8639C19.9365 64.1119 19.7565 64.3039 19.5485 64.4399C19.3405 64.5759 19.1045 64.6439 18.8405 64.6439C18.5845 64.6439 18.3525 64.5759 18.1445 64.4399C17.9365 64.3039 17.7565 64.1119 17.6045 63.8639C17.4525 63.6079 17.3365 63.3079 17.2565 62.9639C17.1765 62.6119 17.1365 62.2239 17.1365 61.7999ZM15.4685 61.7999C15.4685 62.6879 15.6085 63.4559 15.8885 64.1039C16.1765 64.7519 16.5725 65.2559 17.0765 65.6159C17.5885 65.9679 18.1765 66.1439 18.8405 66.1439C19.5285 66.1439 20.1245 65.9679 20.6285 65.6159C21.1325 65.2559 21.5245 64.7519 21.8045 64.1039C22.0845 63.4559 22.2245 62.6879 22.2245 61.7999C22.2245 60.9119 22.0845 60.1439 21.8045 59.4959C21.5245 58.8479 21.1325 58.3479 20.6285 57.9959C20.1245 57.6359 19.5285 57.4559 18.8405 57.4559C18.1765 57.4559 17.5885 57.6359 17.0765 57.9959C16.5725 58.3479 16.1765 58.8479 15.8885 59.4959C15.6085 60.1439 15.4685 60.9119 15.4685 61.7999Z" fill="white"/>
<path d="M24.8475 61.7999C24.8475 61.3759 24.8875 60.9919 24.9675 60.6479C25.0475 60.2959 25.1635 59.9959 25.3155 59.7479C25.4675 59.4919 25.6475 59.2959 25.8555 59.1599C26.0635 59.0239 26.2955 58.9559 26.5515 58.9559C26.8155 58.9559 27.0515 59.0239 27.2595 59.1599C27.4675 59.2959 27.6475 59.4919 27.7995 59.7479C27.9515 59.9959 28.0675 60.2959 28.1475 60.6479C28.2275 60.9919 28.2675 61.3759 28.2675 61.7999C28.2675 62.2239 28.2275 62.6119 28.1475 62.9639C28.0675 63.3079 27.9515 63.6079 27.7995 63.8639C27.6475 64.1119 27.4675 64.3039 27.2595 64.4399C27.0515 64.5759 26.8155 64.6439 26.5515 64.6439C26.2955 64.6439 26.0635 64.5759 25.8555 64.4399C25.6475 64.3039 25.4675 64.1119 25.3155 63.8639C25.1635 63.6079 25.0475 63.3079 24.9675 62.9639C24.8875 62.6119 24.8475 62.2239 24.8475 61.7999ZM23.1795 61.7999C23.1795 62.6879 23.3195 63.4559 23.5995 64.1039C23.8875 64.7519 24.2835 65.2559 24.7875 65.6159C25.2995 65.9679 25.8875 66.1439 26.5515 66.1439C27.2395 66.1439 27.8355 65.9679 28.3395 65.6159C28.8435 65.2559 29.2355 64.7519 29.5155 64.1039C29.7955 63.4559 29.9355 62.6879 29.9355 61.7999C29.9355 60.9119 29.7955 60.1439 29.5155 59.4959C29.2355 58.8479 28.8435 58.3479 28.3395 57.9959C27.8355 57.6359 27.2395 57.4559 26.5515 57.4559C25.8875 57.4559 25.2995 57.6359 24.7875 57.9959C24.2835 58.3479 23.8875 58.8479 23.5995 59.4959C23.3195 60.1439 23.1795 60.9119 23.1795 61.7999Z" fill="white"/>
<defs>
<radialGradient id="paint0_radial_520_24" cx="0" cy="0" r="1" gradientUnits="userSpaceOnUse" gradientTransform="translate(126 54.5) rotate(-2.75911) scale(83.0963 83.2266)">
<stop stop-color="#DE95DE"/>
<stop offset="1" stop-color="#7600AC"/>
</radialGradient>
<radialGradient id="paint1_radial_520_24" cx="0" cy="0" r="1" gradientUnits="userSpaceOnUse" gradientTransform="translate(141.5 67.6094) scale(108.673 108.843)">
<stop stop-color="#04C3FF"/>
<stop offset="1" stop-color="#006D8F"/>
</radialGradient>
<radialGradient id="paint2_radial_520_24" cx="0" cy="0" r="1" gradientUnits="userSpaceOnUse" gradientTransform="translate(141.5 67.6096) scale(108.673 108.843)">
<stop stop-color="#A1434A"/>
<stop offset="1" stop-color="#461215"/>
</radialGradient>
</defs>
</svg>
