<svg width="74" height="38" viewBox="0 0 74 38" fill="none" xmlns="http://www.w3.org/2000/svg">
<path d="M3.09036 0.0690852C2.40803 0.108674 1.72569 0.148264 1.05948 0.131144C0.289062 0.109744 0 0.258471 0 1.06523C0.0306017 10.9582 0.0306017 20.8513 0 30.7443C0 31.5478 0.295265 31.6869 1.05204 31.6826C3.71563 31.6645 6.38666 31.673 9.04281 31.7447C9.91992 31.7682 10.2189 31.5981 10.2115 30.7004C10.1618 25.3377 10.1867 19.9739 10.1867 14.6112V13.339L30.395 28.9403C30.395 25.5356 30.3689 22.361 30.4148 19.1874C30.426 18.4256 30.1903 17.9345 29.5575 17.4498C23.5778 12.8692 17.6278 8.25442 11.6617 3.65565C10.1457 2.48403 8.77856 0.871569 7.03054 0.3002C6.32711 0.0701552 5.56414 0.00274658 4.77635 0.00274658C4.21808 0.00274658 3.65732 0.0359159 3.09036 0.0690852Z" fill="white"/>
<path d="M61.64 0.5227C56.2243 5.32904 50.807 10.1322 45.388 14.9321C45.2112 15.0763 45.0726 15.2517 44.9816 15.4463C44.8906 15.6409 44.8494 15.8502 44.8607 16.0598C44.8781 19.3222 44.8707 22.5867 44.8719 25.848C44.8719 25.986 44.857 26.1401 45.0927 26.1818C48.3617 23.2843 51.6543 20.3847 54.9146 17.4551C55.3799 17.0378 55.6218 17.0143 56.0845 17.4615C58.1315 19.436 60.2079 21.3833 62.3136 23.3036C62.8347 23.7776 63.0047 24.2559 63.0009 24.9161C62.9724 28.9007 62.986 32.8874 62.986 37.0731C66.358 35.282 69.5327 33.5861 72.7199 31.9116C73.1987 31.6591 73.1516 31.2888 73.1504 30.893C73.1504 28.5005 73.1194 26.1069 73.1665 23.7155C73.1826 22.9334 72.9593 22.3759 72.3502 21.8153C68.9062 18.6396 65.5268 15.4061 62.0792 12.2315C61.4899 11.6879 61.5234 11.4311 62.104 10.9175C65.8146 7.63591 69.4881 4.31791 73.1628 1.00312C73.4518 0.742045 73.8426 0.547309 74.0002 0.0401399C70.1729 0.0401399 66.4027 0.0401399 62.6325 0.03479C62.1921 0.03479 61.9315 0.273395 61.6499 0.52377" fill="white"/>
<path d="M40.713 0.00262451C38.707 0.0646832 36.6996 0.0443536 34.6936 0.0111843C34.0658 0.000484556 33.9182 0.21448 33.9194 0.765519C33.9327 12.6123 33.9327 24.4584 33.9194 36.3038C33.9194 36.9276 34.1204 37.1062 34.773 37.0934C36.7021 37.057 38.6338 37.0324 40.5617 37.102C41.4562 37.1341 41.6398 36.8666 41.6336 36.0684C41.5963 30.2359 41.6137 24.4056 41.6137 18.571C41.6137 12.7033 41.6174 6.83479 41.6249 0.965604C41.6249 0.351437 41.5666 0.00262451 40.7999 0.00262451H40.7155" fill="white"/>
<path d="M41.6381 0H33.9165V37.1325H41.6381V0Z" fill="white"/>
</svg>
